<svg id="visual" viewBox="0 0 900 600" width="900" height="600" xmlns="http://www.w3.org/2000/svg" xmlns:xlink="http://www.w3.org/1999/xlink" version="1.1"><rect x="0" y="0" width="900" height="600" fill="#001220"></rect><defs><linearGradient id="grad1_0" x1="33.3%" y1="100%" x2="100%" y2="0%"><stop offset="20%" stop-color="#fbae3c" stop-opacity="1"></stop><stop offset="80%" stop-color="#fbae3c" stop-opacity="1"></stop></linearGradient></defs><defs><linearGradient id="grad1_1" x1="33.3%" y1="100%" x2="100%" y2="0%"><stop offset="20%" stop-color="#fbae3c" stop-opacity="1"></stop><stop offset="80%" stop-color="#cc5867" stop-opacity="1"></stop></linearGradient></defs><defs><linearGradient id="grad1_2" x1="33.3%" y1="100%" x2="100%" y2="0%"><stop offset="20%" stop-color="#593762" stop-opacity="1"></stop><stop offset="80%" stop-color="#cc5867" stop-opacity="1"></stop></linearGradient></defs><defs><linearGradient id="grad1_3" x1="33.3%" y1="100%" x2="100%" y2="0%"><stop offset="20%" stop-color="#593762" stop-opacity="1"></stop><stop offset="80%" stop-color="#001220" stop-opacity="1"></stop></linearGradient></defs><defs><linearGradient id="grad2_0" x1="0%" y1="100%" x2="66.7%" y2="0%"><stop offset="20%" stop-color="#fbae3c" stop-opacity="1"></stop><stop offset="80%" stop-color="#fbae3c" stop-opacity="1"></stop></linearGradient></defs><defs><linearGradient id="grad2_1" x1="0%" y1="100%" x2="66.7%" y2="0%"><stop offset="20%" stop-color="#cc5867" stop-opacity="1"></stop><stop offset="80%" stop-color="#fbae3c" stop-opacity="1"></stop></linearGradient></defs><defs><linearGradient id="grad2_2" x1="0%" y1="100%" x2="66.7%" y2="0%"><stop offset="20%" stop-color="#cc5867" stop-opacity="1"></stop><stop offset="80%" stop-color="#593762" stop-opacity="1"></stop></linearGradient></defs><defs><linearGradient id="grad2_3" x1="0%" y1="100%" x2="66.7%" y2="0%"><stop offset="20%" stop-color="#001220" stop-opacity="1"></stop><stop offset="80%" stop-color="#593762" stop-opacity="1"></stop></linearGradient></defs><g transform="translate(900, 600)"><path d="M-486.7 0C-470.8 -32.5 -454.8 -65.1 -452.4 -103.2C-450 -141.4 -461.2 -185.2 -438.5 -211.2C-415.9 -237.2 -359.4 -245.5 -322.9 -257.5C-286.4 -269.5 -269.9 -285.2 -257.5 -322.9C-245.1 -360.6 -236.9 -420.5 -208.7 -433.4C-180.5 -446.3 -132.5 -412.3 -94.3 -413.4C-56.2 -414.4 -28.1 -450.6 0 -486.7L0 0Z" fill="#232745"></path><path d="M-365.1 0C-353.1 -24.4 -341.1 -48.8 -339.3 -77.4C-337.5 -106.1 -345.9 -138.9 -328.9 -158.4C-311.9 -177.9 -269.6 -184.1 -242.2 -193.1C-214.8 -202.1 -202.4 -213.9 -193.1 -242.2C-183.8 -270.5 -177.6 -315.3 -156.5 -325C-135.4 -334.7 -99.3 -309.2 -70.8 -310C-42.2 -310.8 -21.1 -337.9 0 -365.1L0 0Z" fill="#96446e"></path><path d="M-243.4 0C-235.4 -16.3 -227.4 -32.5 -226.2 -51.6C-225 -70.7 -230.6 -92.6 -219.3 -105.6C-208 -118.6 -179.7 -122.8 -161.4 -128.8C-143.2 -134.7 -134.9 -142.6 -128.8 -161.4C-122.6 -180.3 -118.4 -210.2 -104.3 -216.7C-90.3 -223.1 -66.2 -206.1 -47.2 -206.7C-28.1 -207.2 -14.1 -225.3 0 -243.4L0 0Z" fill="#f17c53"></path><path d="M-121.7 0C-117.7 -8.1 -113.7 -16.3 -113.1 -25.8C-112.5 -35.4 -115.3 -46.3 -109.6 -52.8C-104 -59.3 -89.9 -61.4 -80.7 -64.4C-71.6 -67.4 -67.5 -71.3 -64.4 -80.7C-61.3 -90.2 -59.2 -105.1 -52.2 -108.3C-45.1 -111.6 -33.1 -103.1 -23.6 -103.3C-14.1 -103.6 -7 -112.6 0 -121.7L0 0Z" fill="#fbae3c"></path></g><g transform="translate(0, 0)"><path d="M486.7 0C485.5 37.1 484.3 74.1 474.5 108.3C464.8 142.5 446.6 173.8 428.9 206.5C411.1 239.2 394 273.3 363.6 289.9C333.1 306.6 289.5 305.8 263.1 329.9C236.7 354.1 227.5 403.2 201.3 418C175.2 432.9 132.1 413.5 95.7 419.2C59.3 425 29.7 455.9 0 486.7L0 0Z" fill="#232745"></path><path d="M365.1 0C364.1 27.8 363.2 55.6 355.9 81.2C348.6 106.9 334.9 130.4 321.6 154.9C308.4 179.4 295.5 205 272.7 217.4C249.9 229.9 217.1 229.3 197.3 247.4C177.5 265.6 170.6 302.4 151 313.5C131.4 324.7 99 310.1 71.8 314.4C44.5 318.7 22.2 341.9 0 365.1L0 0Z" fill="#96446e"></path><path d="M243.4 0C242.8 18.5 242.1 37.1 237.3 54.2C232.4 71.3 223.3 86.9 214.4 103.3C205.6 119.6 197 136.6 181.8 145C166.6 153.3 144.8 152.9 131.6 165C118.3 177 113.7 201.6 100.7 209C87.6 216.4 66 206.7 47.8 209.6C29.7 212.5 14.8 227.9 0 243.4L0 0Z" fill="#f17c53"></path><path d="M121.7 0C121.4 9.3 121.1 18.5 118.6 27.1C116.2 35.6 111.6 43.5 107.2 51.6C102.8 59.8 98.5 68.3 90.9 72.5C83.3 76.6 72.4 76.4 65.8 82.5C59.2 88.5 56.9 100.8 50.3 104.5C43.8 108.2 33 103.4 23.9 104.8C14.8 106.2 7.4 114 0 121.7L0 0Z" fill="#fbae3c"></path></g></svg>